<svg width="1080" height="1062" viewBox="0 0 1080 1062" fill="none" xmlns="http://www.w3.org/2000/svg">
<g filter="url(#filter0_f_31_151)">
<path d="M409.672 785.741C408.507 783.263 407.171 780.85 405.841 778.475C402.29 782.177 398.487 785.751 393.483 786.239C383.648 787.198 385.464 780.745 387.703 773.904C389.27 769.116 391.666 764.809 394.518 760.797C391.802 757.15 388.93 753.642 385.909 750.252C379.566 756.503 373.722 760.735 364.464 760.735C360.962 760.735 357.552 760.696 357.552 756.326C357.552 748.566 364.193 741.383 370.324 734.857C369.922 734.504 369.518 734.152 369.112 733.802C363.861 729.267 358.472 724.949 352.948 720.839C352.375 721.263 351.804 721.691 351.235 722.123C345.415 726.538 340.486 731.158 333.001 732.372C325.677 733.559 315.752 732.108 319.952 722.659C322.65 716.587 327.547 711.739 332.339 706.846C324.685 702.112 316.801 697.716 308.69 693.64C307.115 692.848 305.527 692.05 303.927 691.251C301.585 692.638 299.427 694.321 297.547 696.381C291.739 702.741 286.113 709.208 279.67 714.972C274.759 719.366 265.588 726.784 259.589 720.097C256.232 716.354 254.471 710.897 256.252 706.034C259.854 696.198 269.75 686.75 277.94 679.278C271.564 676.723 265.083 674.501 258.544 672.865C254.951 678.332 250.922 683.419 246.957 688.634C244.604 691.728 240.371 698.073 235.992 698.526C232.355 698.902 234.184 687.182 234.801 685.416C236.494 680.571 240.166 675.499 243.678 670.238C237.293 669.558 230.809 669.363 224.33 669.352C223.333 676.556 222.341 683.571 220.142 690.779C218.169 697.247 205.289 703.696 204.113 693.699C203.141 685.434 204.65 677.465 206.656 669.548C206.026 669.555 205.397 669.561 204.768 669.566C201.559 669.591 198.325 669.652 195.084 669.78C194.222 683.598 191.455 702.016 182.602 693.163C178.055 688.616 171.516 679.374 170.863 672.843C170.853 672.745 170.84 672.629 170.823 672.496C168.612 672.955 166.419 673.484 164.249 674.095C161.924 674.749 159.939 675.713 158.061 676.813C160.113 681.011 165.592 683.429 167.586 688.634C169.917 694.721 169.119 703.116 166.513 709.013C162.656 717.742 154.332 692.11 153.821 690.064C153.052 686.99 152.659 683.93 152.57 680.769C152.566 680.636 152.576 680.474 152.593 680.295C151.891 680.739 151.172 681.178 150.424 681.603C149.505 682.126 143.901 687.222 146.849 683.927C148.489 682.094 150.502 679.37 152.45 677.908C153.108 677.415 152.702 679.185 152.593 680.295C154.461 679.113 156.209 677.897 158.061 676.813C158.016 676.722 157.974 676.63 157.932 676.538C156.366 673.012 155.787 670.761 155.787 666.765C155.787 662.609 153.642 650.422 157.098 647.28C164.975 640.12 170.208 667.602 170.823 672.496C178.773 670.844 186.951 670.101 195.084 669.78C195.446 663.984 195.473 658.998 195.473 657.172C195.473 649.693 193.39 641.182 200.299 636.376C204.311 633.585 212.498 630.255 212.634 637.865C212.828 648.711 209.307 659.084 206.656 669.548C212.492 669.484 218.409 669.342 224.33 669.352C224.7 666.675 225.071 663.973 225.505 661.224C226.603 654.271 231.233 644.8 238.376 641.739C240.772 640.711 247.996 638.938 249.638 641.858C255.197 651.739 249.67 661.263 243.678 670.238C245.856 670.47 248.023 670.758 250.174 671.115C252.972 671.58 255.763 672.169 258.544 672.865C258.795 672.482 259.044 672.098 259.291 671.711C262.149 667.239 271.894 655.925 278.598 659.019C281.456 660.338 282.703 665.7 283.901 668.315C285.888 672.65 284.87 672.966 281.279 676.24C280.215 677.21 279.094 678.224 277.94 679.278C286.848 682.848 295.552 687.068 303.927 691.251C309.472 687.966 316.045 686.34 322.395 685.297C326.518 684.62 347.397 680.901 344.323 690.124C342.138 696.68 337.294 701.787 332.339 706.846C339.406 711.217 346.276 715.876 352.948 720.839C360.145 715.522 367.722 710.896 376.501 708.656C377.587 708.378 386.494 705.45 386.392 708.417C386.179 714.594 381.134 721.487 377.752 726.294C375.845 729.004 373.138 731.861 370.324 734.857C375.887 739.739 381.089 744.844 385.909 750.252C386.227 749.938 386.547 749.618 386.869 749.295C387.3 748.86 390.361 745.827 394.071 742.601C391.576 737.141 389.539 731.49 388.418 725.459C388.104 723.77 385.953 711.506 391.159 712.708C397.49 714.169 403.374 720.26 407.844 724.506C415.859 732.12 423.302 741.102 427.508 751.44C429.645 756.694 428.882 762.354 435.492 763.417C437.949 763.812 440.49 764.165 443.077 764.458C446.276 755.02 448.093 744.924 449.022 734.935C431.73 722.518 413.089 710.847 398.191 695.487C393.323 690.468 389 684.607 386.75 677.908C384.913 672.442 387.531 672.653 391.874 673.022C410.262 674.584 428.269 678.728 446.332 682.506C443.896 670.99 440.407 659.64 436.591 648.396C413.637 644.137 390.701 639.822 368.516 632.8C358.635 629.673 338.999 621.143 356.062 610.872C366.075 604.845 379.074 604.501 390.325 604.019C400.608 603.579 410.904 603.573 421.201 603.593C417.901 593.195 414.751 582.699 411.801 572.13C387.966 572.693 364.109 573.155 340.271 572.557C337.486 572.487 279.813 572.573 282.471 560.878C283.92 554.502 310.701 553.845 313.337 553.608C335.557 551.609 357.969 551.233 380.255 550.569C388.814 550.314 397.382 550.14 405.95 549.959C403.805 541.314 401.814 532.631 400.007 523.922C376.313 526.188 352.137 527.602 329.069 523.576C315.986 521.293 290.981 516.445 283.424 503.554C274.176 487.778 330.107 486.94 333.597 486.632C353.388 484.883 373.203 484.154 393.033 483.36C392.146 476.719 391.424 470.059 390.839 463.386C377.591 464.024 364.383 464.209 351.354 462.32C325.396 458.556 357.408 438.023 365.596 433.956C373.024 430.266 380.879 427.856 388.798 425.69C388.58 417.24 388.492 408.789 388.478 400.348C388.47 395.951 388.476 391.548 388.501 387.14C377.987 385.328 367.489 383.199 358.028 378.301C352.904 375.648 349.847 371.381 349.924 365.549C350.062 355.247 359.079 349.389 367.264 344.932C374.642 340.914 382.256 337.604 390.022 334.692C390.859 320.506 392.116 306.358 393.977 292.314C392.515 291.919 391.059 291.505 389.61 291.064C381.79 288.687 366.532 284.989 366.013 274.618C365.774 269.84 366.51 265.844 371.138 263.654C380.166 259.381 390.568 258.035 400.72 256.902C403.651 245.489 407.333 234.303 411.904 223.349C401.359 219.985 386.764 214.252 387.346 206.688C387.851 200.118 396.227 195.876 401.587 194.115C409.619 191.476 418.589 192.176 427.22 193.397C433.714 183.423 441.73 174.606 452.475 168.909C453.906 168.151 455.333 167.456 456.756 166.821C455.009 163.552 453.455 160.226 452.296 156.873C448.268 145.213 453.359 144.724 463.618 147.219C474.301 149.818 476.86 152.813 478.855 161.448C488.161 160.958 497.308 162.565 506.294 165.461C509.716 157.738 513.719 150.837 521.061 148.769C526.583 147.213 534.408 147.588 534.408 154.727C534.408 161.342 531.871 168.965 528.319 174.86C531.301 176.39 534.264 177.993 537.209 179.635C540.16 181.281 543.847 181.511 540.307 183.747C538.495 184.891 536.71 186.441 535.481 188.216C532.067 193.147 521.537 209.255 521.537 194.532C521.537 187.398 521.959 183.725 526.364 177.788C527.041 176.875 527.696 175.894 528.319 174.86C521.087 171.149 513.746 167.862 506.294 165.461C502.476 174.078 499.38 183.719 493.173 188.812C491.734 189.993 485.442 194.428 483.639 191.314C482.369 189.12 482.716 184.795 482.448 182.495C481.797 176.912 480.818 171.39 479.766 165.87C479.457 164.249 479.163 162.781 478.855 161.448C471.586 161.831 464.22 163.493 456.756 166.821C459.541 172.031 462.817 177.097 465.763 181.899C467.691 185.043 476.075 194.167 474.403 198.465C472.643 202.991 441.671 195.542 438.293 195.068C434.74 194.57 431.013 193.933 427.22 193.397C422.986 199.9 419.4 206.896 416.126 213.838C414.641 216.989 413.235 220.159 411.904 223.349C415.88 224.617 419.279 225.548 421.072 226.114C431.536 229.414 443.896 228.375 448.125 239.819C452.46 251.549 416.586 254.926 412.134 255.55C408.426 256.07 404.591 256.47 400.72 256.902C397.921 267.805 395.807 278.916 394.258 290.23C394.163 290.924 394.069 291.619 393.977 292.314C401.652 294.385 409.486 295.912 417.199 297.798C421.4 298.825 428.835 299.639 432.394 302.803C444.665 313.711 424.96 323.464 416.961 325.864C407.866 328.592 398.846 331.384 390.022 334.692C388.991 352.16 388.598 369.684 388.501 387.14C394.04 388.095 399.584 388.961 404.984 390.099C411.941 391.565 426.971 393.168 431.44 399.872C435.408 405.822 425.561 413.234 421.311 415.245C410.998 420.124 399.835 422.671 388.798 425.69C389.124 438.273 389.74 450.852 390.839 463.386C413.525 462.295 436.328 459.879 458.553 464.286C472.379 467.027 463.415 474.832 454.68 477.336C439.019 481.825 422.176 482.107 406.056 482.818C401.714 483.009 397.373 483.186 393.033 483.36C393.083 483.735 393.134 484.111 393.185 484.486C394.983 497.663 397.289 510.822 400.007 523.922C409.32 523.031 418.559 522.009 427.627 521.133C443.393 519.61 460.917 516.842 476.131 522.861C482.654 525.441 492.224 538.463 482.626 543.657C472.788 548.981 456.962 548.214 446.457 548.722C432.97 549.375 419.459 549.674 405.95 549.959C407.792 557.38 409.748 564.773 411.801 572.13C414.157 572.074 416.512 572.018 418.867 571.961C436.238 571.544 454.114 570.166 471.484 571.842C477.707 572.443 499.891 574.884 498.775 585.547C496.75 604.895 462.932 603.003 450.687 603.364C440.865 603.654 431.032 603.612 421.201 603.593C421.789 605.446 422.382 607.297 422.979 609.144C427.183 622.147 432.112 635.198 436.591 648.396C455.395 651.885 474.211 655.337 492.637 660.211C501.368 662.52 530.31 665.991 518.439 680.53C507.822 693.532 488.152 689.663 473.748 687.562C464.558 686.221 455.438 684.41 446.332 682.506C448.311 691.857 449.594 701.318 449.794 710.92C449.953 718.569 449.788 726.715 449.022 734.935C449.16 735.034 449.298 735.133 449.436 735.232C450.614 736.08 458.957 741.309 466.009 747.159C468.512 744.218 471.172 741.526 473.986 739.224C482.534 732.231 492.532 740.905 491.863 750.606C491.041 762.516 479.476 773.065 474.006 783.463C483.152 783.489 492.299 783.535 501.437 783.509C503.781 772.783 505.254 761.584 513.493 754.062C521.125 747.093 525.312 753.264 523.802 760.735C522.321 768.058 519.158 775.69 517.132 783.378C520.867 783.321 524.601 783.244 528.33 783.14L528.456 783.137C534.645 782.964 540.835 782.792 547.026 782.629C547.467 780.972 547.908 779.315 548.352 777.658C549.698 772.638 557.956 732.715 570.042 743.932C579.604 752.806 578.059 767.809 575.979 781.965C583.764 781.823 591.547 781.717 599.325 781.667C600.491 774.698 601.37 767.766 602.994 761.987C604.572 756.371 606.692 743.335 615.269 745.421C622.687 747.226 623.271 761.652 622.837 767.409C622.479 772.148 620.879 776.901 619.163 781.669C627.434 781.728 635.698 781.868 643.953 782.109C645.627 778.606 647.463 775.195 649.77 772.057C656.288 763.191 660.215 773.503 664.19 779.923C664.786 780.885 665.375 781.92 665.961 783.008C678.888 783.697 691.789 784.684 704.654 786.053C708.015 781.778 710.61 778.383 711.324 777.539C716.273 771.695 724.458 757.292 732.18 767.588C737.658 774.892 741.129 783.154 744.236 791.583C753.557 793.221 762.855 795.107 772.125 797.276C774.177 794.903 775.704 793.084 776.216 792.555C782.314 786.259 788.728 778.175 796.118 773.249C799.017 771.316 797.885 776.338 797.786 777.539C797.075 786.187 796.267 794.862 796.079 803.547C803.214 805.618 810.351 807.863 817.43 810.328C825.032 804.46 832.427 798.138 840.928 794.105C855.661 787.115 857.389 799.134 849.866 808.644C848.377 810.526 844.221 814.52 839.949 819.08C849.107 823.056 858.047 827.507 866.624 832.541C881.288 826.844 896.14 821.35 910.527 827.235C920.539 831.332 912.029 846.163 905.521 849.283C902.797 850.589 897.814 850.648 892.561 850.796C898.12 855.655 903.326 861.208 907.197 867.47C913.593 866.6 919.966 865.883 925.9 867.636C934.734 870.246 936.755 882.927 930.071 888.849C921.68 896.285 909.217 898.326 899.904 892.546C895.602 893.56 890.981 894.031 887.406 894.57C886.266 894.742 885.123 894.918 883.978 895.098C884.571 900.036 884.21 905.24 884.07 909.943C883.922 914.897 875.6 913.259 872.807 910.778C869.265 907.629 867.445 902.699 865.243 898.122C862.479 898.553 859.711 898.965 856.942 899.342C861.368 901.654 865.12 904.196 864.703 906.07C864.126 908.668 859.6 911.799 858.328 914.83C857.506 916.786 855.903 916.563 854.395 915.306C849.554 911.273 845.936 906.115 842.5 900.902C841.34 900.988 840.18 901.063 839.021 901.124C833.689 901.409 827.019 903.296 826.21 896.417C825.597 891.209 825.804 887.377 832.109 888.373C835.571 888.919 839.181 895.83 840.928 898.502L841.199 898.917C841.631 899.578 842.064 900.241 842.5 900.902C847.304 900.548 852.123 899.998 856.942 899.342C851.923 896.72 846.038 894.395 844.384 893.676C841.252 892.314 834.047 888.727 841.703 888.432C846.319 888.255 856.059 886.804 859.877 890.22C862.214 892.311 863.81 895.142 865.243 898.122C871.517 897.145 877.774 896.072 883.978 895.098C883.415 890.412 881.992 885.966 878.707 882.414C876.106 879.602 867.36 872.005 875.191 868.649C884.965 864.46 890.813 884.271 895.927 889.385C897.165 890.623 898.499 891.673 899.904 892.546C908.109 890.611 915.159 886.7 911.599 876.574C910.479 873.388 908.979 870.354 907.197 867.47C899.607 868.501 891.985 869.748 885.023 867.338C880.619 865.814 871.39 863.665 873.523 857.268C875.452 851.478 884.339 851.028 892.561 850.796C890.128 848.67 887.628 846.676 885.142 844.814C879.21 840.37 873.018 836.294 866.624 832.541C856.92 836.311 847.299 840.171 837.949 840.881C820.335 842.219 830.428 829.244 839.949 819.08C832.56 815.872 825.029 812.973 817.43 810.328C813.835 813.103 810.193 815.777 806.367 818.059C800.781 821.39 796.922 824.618 796.356 816.629C796.047 812.267 795.985 807.906 796.079 803.547C795.496 803.378 794.913 803.21 794.33 803.043C786.947 800.929 779.545 799.012 772.125 797.276C765.765 804.632 754.366 817.309 752.559 813.352C749.346 806.313 746.928 798.885 744.236 791.583C731.086 789.274 717.889 787.461 704.654 786.053C696.847 795.98 684.906 810.65 682.782 809.121C675.197 803.659 670.624 791.656 665.961 783.008C658.633 782.618 651.297 782.323 643.953 782.109C640.329 789.693 637.468 797.714 632.251 804.354C628.517 809.107 616.581 814.936 614.733 805.188C613.237 797.305 616.356 789.467 619.163 781.669C612.554 781.621 605.941 781.624 599.325 781.667C597.617 791.871 595.293 802.152 589.11 809.002C582.876 815.908 574.484 813.47 573.855 803.996C573.443 797.78 574.797 790.009 575.979 781.965C566.33 782.141 556.678 782.374 547.026 782.629C544.949 790.436 542.877 798.239 540.486 805.963C539.334 809.684 537.943 818.824 532.621 819.37C523.979 820.256 517.962 809.919 516.174 802.983C514.507 796.512 515.407 789.924 517.132 783.378C511.905 783.456 506.672 783.494 501.437 783.509C499.857 790.738 497.882 797.752 493.173 803.281C489.118 808.044 477.65 812.528 472.199 807.452C466.137 801.809 470.557 790.618 473.39 784.69C473.586 784.281 473.791 783.872 474.006 783.463C464.292 783.436 454.578 783.431 444.877 783.559C442.783 788.484 440.207 793.585 436.386 795.833C432.45 798.148 431.494 792.264 431.335 786.998C430.384 788.229 429.387 789.428 428.342 790.589C424.491 794.868 418.434 795.12 412.829 795.084C411.698 795.077 410.585 795.058 409.512 795.058C402.565 795.058 405.8 789.894 409.672 785.741Z" fill="#0C95E2" fill-opacity="0.5"/>
<path d="M413.207 798.276C412.788 790.523 408.701 783.597 404.984 776.943C395.642 760.223 383.573 746.291 369.112 733.802C350.648 717.856 330.488 704.595 308.69 693.64C290.461 684.479 270.505 674.49 250.174 671.115C235.331 668.652 219.752 669.451 204.768 669.566C191.264 669.67 177.328 670.416 164.249 674.095C158.771 675.635 155.182 678.898 150.424 681.603C149.505 682.126 143.901 687.222 146.849 683.927C148.489 682.094 150.502 679.37 152.45 677.908C153.214 677.336 152.543 679.815 152.57 680.769C152.659 683.93 153.052 686.99 153.821 690.064C154.332 692.11 162.656 717.742 166.513 709.013C169.119 703.116 169.917 694.721 167.586 688.634C165.549 683.317 159.874 680.907 157.932 676.538C156.366 673.012 155.787 670.761 155.787 666.765C155.787 662.609 153.642 650.422 157.098 647.28C165.189 639.925 170.491 669.121 170.863 672.843C171.516 679.374 178.055 688.616 182.602 693.163C195.167 705.728 195.473 663.353 195.473 657.172C195.473 649.693 193.39 641.182 200.299 636.376C204.311 633.585 212.498 630.255 212.634 637.865C212.974 656.916 201.855 674.508 204.113 693.699C205.289 703.696 218.169 697.247 220.142 690.779C223.158 680.893 223.903 671.371 225.505 661.224C226.603 654.271 231.233 644.8 238.376 641.739C240.772 640.711 247.996 638.938 249.638 641.858C258.455 657.532 239.381 672.306 234.801 685.416C234.184 687.182 232.355 698.902 235.992 698.526C240.371 698.073 244.604 691.728 246.957 688.634C251.2 683.054 255.516 677.621 259.291 671.711C262.149 667.239 271.894 655.925 278.598 659.019C281.456 660.338 282.703 665.7 283.901 668.315C285.888 672.65 284.87 672.966 281.279 676.24C272.666 684.093 260.362 694.812 256.252 706.034C254.471 710.897 256.232 716.354 259.589 720.097C265.588 726.784 274.759 719.366 279.67 714.972C286.113 709.208 291.739 702.741 297.547 696.381C303.881 689.443 313.365 686.78 322.395 685.297C326.518 684.62 347.397 680.901 344.323 690.124C340.024 703.021 325.441 710.308 319.952 722.659C315.752 732.108 325.677 733.559 333.001 732.372C340.486 731.158 345.415 726.538 351.235 722.123C358.945 716.274 367.022 711.074 376.501 708.656C377.587 708.378 386.494 705.45 386.392 708.417C386.179 714.594 381.134 721.487 377.752 726.294C371.689 734.909 357.552 745.005 357.552 756.326C357.552 760.696 360.962 760.735 364.464 760.735C374.187 760.735 380.145 756.067 386.869 749.295C388.045 748.11 408.745 727.626 408.916 736.543C409.03 742.44 407.644 745.63 403.553 750.01C396.962 757.066 390.758 764.57 387.703 773.904C385.464 780.745 383.648 787.198 393.483 786.239C401.224 785.484 406.09 777.345 411.598 772.772C416.435 768.756 423.845 764.237 430.368 763.953C432.614 763.856 430.71 767.242 430.249 767.886C426.282 773.421 420.443 777.012 414.994 780.876C412.246 782.825 398.821 795.058 409.512 795.058C415.899 795.058 423.713 795.732 428.342 790.589C447.013 769.844 450.344 737.396 449.794 710.92C449.06 675.617 433.674 642.221 422.979 609.144C409.895 568.678 398.943 526.673 393.185 484.486C389.383 456.625 388.526 428.43 388.478 400.348C388.415 363.698 389.278 326.6 394.258 290.23C397.9 263.625 404.668 238.143 416.126 213.838C424.419 196.249 434.723 178.321 452.475 168.909C482.259 153.118 510.505 164.742 537.209 179.635C540.16 181.281 543.847 181.511 540.307 183.747C538.495 184.891 536.71 186.441 535.481 188.216C532.067 193.147 521.537 209.255 521.537 194.532C521.537 187.398 521.959 183.725 526.364 177.788C530.902 171.671 534.408 162.503 534.408 154.727C534.408 147.588 526.583 147.213 521.061 148.769C505.526 153.144 504.942 179.155 493.173 188.812C491.734 189.993 485.442 194.428 483.639 191.314C482.369 189.12 482.716 184.795 482.448 182.495C481.797 176.912 480.818 171.39 479.766 165.87C477.457 153.748 475.95 150.219 463.618 147.219C453.359 144.724 448.268 145.213 452.296 156.873C455.302 165.572 460.969 174.084 465.763 181.899C467.691 185.043 476.075 194.167 474.403 198.465C472.643 202.991 441.671 195.542 438.293 195.068C426.651 193.436 413.147 190.317 401.587 194.115C396.227 195.876 387.851 200.118 387.346 206.688C386.544 217.105 414.525 224.049 421.072 226.114C431.536 229.414 443.896 228.375 448.125 239.819C452.46 251.549 416.586 254.926 412.134 255.55C398.701 257.433 383.609 257.752 371.138 263.654C366.51 265.844 365.774 269.84 366.013 274.618C366.532 284.989 381.79 288.687 389.61 291.064C398.662 293.817 408.016 295.553 417.199 297.798C421.4 298.825 428.835 299.639 432.394 302.803C444.665 313.711 424.96 323.464 416.961 325.864C399.862 330.993 383.025 336.349 367.264 344.932C359.079 349.389 350.062 355.248 349.924 365.549C349.847 371.381 352.904 375.648 358.028 378.301C372.474 385.78 389.336 386.802 404.984 390.099C411.941 391.565 426.971 393.168 431.44 399.872C435.408 405.822 425.561 413.234 421.311 415.245C403.598 423.625 383.376 425.124 365.596 433.956C357.408 438.023 325.396 458.556 351.354 462.32C386.693 467.444 423.349 457.306 458.553 464.286C472.379 467.027 463.415 474.832 454.68 477.336C439.019 481.825 422.176 482.107 406.056 482.818C381.878 483.884 357.72 484.5 333.597 486.632C330.107 486.94 274.176 487.778 283.424 503.554C290.981 516.445 315.986 521.293 329.069 523.576C361.204 529.184 395.489 524.237 427.627 521.133C443.393 519.61 460.917 516.842 476.131 522.861C482.654 525.441 492.224 538.463 482.626 543.657C472.788 548.981 456.962 548.214 446.457 548.722C424.416 549.788 402.31 549.912 380.255 550.569C357.969 551.233 335.557 551.609 313.337 553.608C310.701 553.845 283.92 554.502 282.471 560.878C279.813 572.573 337.486 572.487 340.271 572.557C366.464 573.215 392.682 572.591 418.867 571.961C436.238 571.544 454.114 570.166 471.484 571.842C477.707 572.443 499.891 574.884 498.775 585.547C496.75 604.895 462.932 603.003 450.687 603.364C430.577 603.957 410.425 603.159 390.325 604.019C379.074 604.501 366.075 604.845 356.062 610.872C338.999 621.143 358.635 629.673 368.516 632.8C408.874 645.574 451.717 649.388 492.637 660.211C501.368 662.52 530.31 665.991 518.439 680.53C507.822 693.532 488.152 689.663 473.748 687.562C446.328 683.562 419.531 675.372 391.874 673.022C387.531 672.653 384.913 672.442 386.75 677.908C389 684.607 393.323 690.468 398.191 695.487C413.208 710.969 432.027 722.704 449.436 735.232C452.139 737.177 492.554 762.181 468.564 764.847C457.981 766.023 445.97 765.101 435.492 763.417C428.881 762.354 429.645 756.694 427.508 751.44C423.302 741.102 415.859 732.12 407.844 724.506C403.374 720.26 397.49 714.169 391.159 712.708C385.953 711.506 388.104 723.77 388.418 725.459C391.371 741.343 400.677 754.591 407.963 768.661C409.633 771.886 409.989 773.656 409.989 777.122C409.989 778.131 409.364 787.312 410.644 787.312C412.631 787.312 414.346 784.52 416.901 784.392C453.904 782.542 491.279 784.173 528.33 783.14C617.74 780.649 707.365 778.139 794.33 803.043C826.27 812.189 858.361 824.749 885.142 844.814C895.922 852.89 906.982 863.441 911.599 876.574C917.026 892.01 897.798 893.004 887.406 894.57C871.468 896.971 855.132 900.265 839.021 901.124C833.689 901.409 827.019 903.296 826.21 896.417C825.597 891.209 825.804 887.377 832.109 888.373C835.571 888.919 839.181 895.83 840.928 898.502C844.854 904.506 848.812 910.654 854.395 915.306C855.903 916.563 857.506 916.786 858.328 914.83C859.6 911.799 864.126 908.668 864.703 906.07C865.592 902.07 847.496 895.029 844.384 893.676C841.252 892.314 834.047 888.727 841.703 888.432C846.319 888.255 856.059 886.804 859.877 890.22C865.803 895.522 866.958 905.578 872.807 910.778C875.6 913.259 883.922 914.897 884.07 909.943C884.343 900.776 885.456 889.71 878.707 882.414C876.106 879.602 867.36 872.005 875.191 868.649C884.965 864.46 890.813 884.271 895.927 889.385C905.362 898.82 920.413 897.407 930.071 888.849C936.755 882.927 934.734 870.246 925.9 867.636C912.926 863.803 897.853 871.779 885.023 867.338C880.619 865.814 871.39 863.665 873.523 857.268C876.685 847.779 898.533 852.633 905.521 849.283C912.029 846.163 920.539 831.332 910.527 827.235C886.62 817.455 861.428 839.098 837.949 840.881C812.434 842.819 845.059 814.721 849.866 808.644C857.389 799.134 855.661 787.115 840.928 794.105C828.406 800.046 818.284 810.952 806.367 818.059C800.781 821.39 796.922 824.618 796.356 816.629C795.431 803.578 796.718 790.528 797.786 777.539C797.885 776.338 799.017 771.316 796.118 773.249C788.728 778.175 782.314 786.259 776.216 792.555C774.118 794.721 754.949 818.586 752.559 813.352C745.636 798.187 742.404 781.219 732.18 767.588C724.458 757.292 716.273 771.695 711.324 777.539C708.952 780.341 685.821 811.309 682.782 809.121C674.242 802.972 669.521 788.531 664.19 779.923C660.215 773.503 656.288 763.191 649.77 772.057C642.469 781.99 639.878 794.647 632.251 804.354C628.517 809.107 616.581 814.936 614.733 805.188C612.323 792.485 621.894 779.9 622.837 767.409C623.271 761.652 622.687 747.226 615.269 745.421C606.692 743.335 604.572 756.371 602.994 761.987C598.992 776.228 599.516 797.474 589.11 809.002C582.876 815.908 574.485 813.47 573.855 803.996C572.716 786.841 585.038 757.849 570.042 743.932C557.956 732.715 549.698 772.638 548.352 777.658C545.814 787.121 543.384 796.6 540.486 805.963C539.334 809.684 537.943 818.824 532.621 819.37C523.979 820.256 517.962 809.919 516.174 802.983C512.548 788.913 521.061 774.295 523.802 760.735C525.312 753.264 521.125 747.093 513.493 754.062C499.701 766.654 504.868 789.548 493.173 803.281C489.118 808.044 477.65 812.528 472.199 807.452C466.137 801.809 470.557 790.618 473.39 784.69C478.549 773.893 491.009 762.984 491.863 750.606C492.532 740.905 482.534 732.231 473.986 739.224C463.027 748.191 454.402 763.056 448.244 775.632C445.396 781.45 442.466 792.256 436.386 795.833C430.04 799.566 431.44 781.982 431.44 780.042" stroke="#0C95E2" stroke-opacity="0.5" stroke-width="3" stroke-linecap="round"/>
</g>
<defs>
<filter id="filter0_f_31_151" x="0.500061" y="0.499878" width="1079.03" height="1061.27" filterUnits="userSpaceOnUse" color-interpolation-filters="sRGB">
<feFlood flood-opacity="0" result="BackgroundImageFix"/>
<feBlend mode="normal" in="SourceGraphic" in2="BackgroundImageFix" result="shape"/>
<feGaussianBlur stdDeviation="72" result="effect1_foregroundBlur_31_151"/>
</filter>
</defs>
</svg>
