<svg width="1122" height="919" viewBox="0 0 1122 919" fill="none" xmlns="http://www.w3.org/2000/svg">
<g filter="url(#filter0_f_31_150)">
<path d="M661.752 656.145C634.188 691.072 610.448 729.161 609.851 774.546C609.851 743.683 584.759 720.656 567.901 697.201C552.641 675.97 532.912 662.77 509.922 650.484C450.952 618.971 385.218 604.313 322.161 583.388C258.497 562.262 181.255 532.912 161.512 460.757C146.99 407.685 171.627 347.005 214.545 314.29C249.127 287.929 292.229 283.218 334.436 285.807C389.317 289.172 444.711 299.097 492.165 327.995C508.645 338.031 524.13 349.37 537.63 363.152C541.806 367.415 542.122 365.194 544.721 360.53C553.348 345.053 560.346 328.806 567.782 312.741C582.551 280.831 599.513 251.46 623.437 225.385C649.904 196.537 681.947 172.421 720.684 163.294C755.693 155.046 794.833 155.989 830.326 159.957C871.217 164.529 911.242 177.577 939.669 208.7C963.753 235.068 968.38 266.675 962.968 301.061C957.478 335.948 944.329 370.279 924.594 399.56C906.338 426.646 882.509 449.017 859.107 471.542C828.618 500.888 797.486 529.334 764.898 556.336C727.906 586.987 691.65 618.26 661.752 656.145Z" stroke="#0C95E2" stroke-opacity="0.5" stroke-width="25" stroke-linecap="round"/>
</g>
<defs>
<filter id="filter0_f_31_150" x="0.81987" y="0.499756" width="1120.67" height="918.211" filterUnits="userSpaceOnUse" color-interpolation-filters="sRGB">
<feFlood flood-opacity="0" result="BackgroundImageFix"/>
<feBlend mode="normal" in="SourceGraphic" in2="BackgroundImageFix" result="shape"/>
<feGaussianBlur stdDeviation="72" result="effect1_foregroundBlur_31_150"/>
</filter>
</defs>
</svg>
