<svg width="124" height="23" viewBox="0 0 124 23" fill="none" xmlns="http://www.w3.org/2000/svg">
<g clip-path="url(#clip0_31_6)">
<path d="M0.559998 1.488H5.36V18H0.559998V1.488ZM6.368 12.216V7.056L10.16 1.488H15.392L9.704 9.264L15.464 18H10.088L6.368 12.216ZM22.5461 10.416C22.5461 10 22.5301 9.704 22.4981 9.528C22.4661 9.352 22.3701 9.224 22.2101 9.144C22.0661 9.064 21.7941 9.008 21.3941 8.976C21.1541 8.96 20.6341 8.952 19.8341 8.952C19.0661 8.952 18.3541 8.984 17.6981 9.048L16.4261 9.12V6C17.9301 5.712 19.5541 5.568 21.2981 5.568C22.6421 5.568 23.6901 5.664 24.4421 5.856C25.2101 6.048 25.7861 6.352 26.1701 6.768C26.5061 7.152 26.7221 7.64 26.8181 8.232C26.9301 8.824 26.9861 9.648 26.9861 10.704V18H22.5461V10.416ZM18.9941 18.168C17.8901 18.168 17.0741 17.864 16.5461 17.256C16.0181 16.632 15.7541 15.696 15.7541 14.448C15.7541 13.68 15.8101 13.064 15.9221 12.6C16.0341 12.12 16.2261 11.744 16.4981 11.472C16.7701 11.184 17.1461 10.984 17.6261 10.872C18.1061 10.744 18.7381 10.68 19.5221 10.68L21.5381 10.728V12.864H21.2981C20.9301 12.864 20.6901 12.872 20.5781 12.888C20.2581 12.904 20.0901 13.056 20.0741 13.344C20.0581 13.44 20.0501 13.64 20.0501 13.944C20.0501 14.184 20.0581 14.368 20.0741 14.496C20.1061 14.624 20.1541 14.728 20.2181 14.808C20.2981 14.92 20.4181 14.984 20.5781 15C20.8021 15.032 21.0421 15.048 21.2981 15.048H21.5381V17.496C21.1861 17.768 20.8101 17.944 20.4101 18.024C20.0261 18.12 19.5541 18.168 18.9941 18.168ZM29.6649 0.167999H34.1049V3.624H29.6649V0.167999ZM29.6649 5.76H34.1049V18H29.6649V5.76ZM43.6768 11.904C43.6768 11.088 43.6688 10.544 43.6528 10.272C43.6368 9.888 43.5888 9.6 43.5088 9.408C43.4288 9.2 43.3008 9.072 43.1248 9.024C42.9328 8.976 42.6688 8.952 42.3328 8.952H41.9968V5.568H42.3328C43.7248 5.568 44.8128 5.68 45.5968 5.904C46.3808 6.112 46.9648 6.464 47.3488 6.96C47.7008 7.408 47.9248 8.008 48.0208 8.76C48.1328 9.496 48.1888 10.544 48.1888 11.904C48.1888 13.168 48.1488 14.152 48.0688 14.856C48.0048 15.544 47.8368 16.112 47.5648 16.56C47.2608 17.056 46.8048 17.432 46.1968 17.688C45.5888 17.928 44.7488 18.08 43.6768 18.144V11.904ZM42.3328 18.192C40.9408 18.192 39.8528 18.088 39.0688 17.88C38.2848 17.672 37.7008 17.32 37.3168 16.824C36.9648 16.376 36.7328 15.784 36.6208 15.048C36.5248 14.312 36.4768 13.264 36.4768 11.904C36.4768 10.656 36.5168 9.68 36.5968 8.976C36.6768 8.272 36.8528 7.688 37.1248 7.224C37.4128 6.712 37.8608 6.336 38.4688 6.096C39.0768 5.84 39.9168 5.68 40.9888 5.616V11.904C40.9888 12.72 40.9968 13.256 41.0128 13.512C41.0288 13.896 41.0768 14.184 41.1568 14.376C41.2368 14.568 41.3728 14.688 41.5648 14.736C41.7248 14.784 41.9808 14.808 42.3328 14.808H42.6688V18.192H42.3328ZM50.7631 1.488H55.5631V18H50.7631V1.488ZM56.5711 1.488H62.1871V5.16H56.5711V1.488ZM56.5711 8.304H61.2991V11.976H56.5711V8.304ZM69.1117 10.68H70.7917C70.7917 9.784 70.7037 9.208 70.5277 8.952C70.4317 8.808 70.3037 8.72 70.1437 8.688C69.9837 8.64 69.7517 8.616 69.4477 8.616H69.1117V5.568H69.4477C70.8237 5.568 71.8797 5.68 72.6157 5.904C73.3677 6.128 73.9197 6.496 74.2717 7.008C74.5917 7.456 74.7837 8.032 74.8477 8.736C74.9277 9.44 74.9677 10.496 74.9677 11.904V12.864H69.1117V10.68ZM69.9277 18.192C68.4557 18.192 67.2957 18.072 66.4477 17.832C65.6157 17.576 64.9917 17.176 64.5757 16.632C64.2077 16.152 63.9677 15.56 63.8557 14.856C63.7437 14.136 63.6877 13.152 63.6877 11.904C63.6877 10.752 63.7277 9.84 63.8077 9.168C63.8877 8.48 64.0557 7.896 64.3117 7.416C64.5997 6.888 65.0397 6.48 65.6317 6.192C66.2397 5.888 67.0637 5.696 68.1037 5.616V12.864C68.1037 13.408 68.1277 13.8 68.1757 14.04C68.2237 14.264 68.3357 14.432 68.5117 14.544C68.7037 14.672 68.9997 14.744 69.3997 14.76C69.9117 14.792 70.4557 14.808 71.0317 14.808C72.0557 14.808 72.7997 14.784 73.2637 14.736L74.4877 14.64V17.736C73.8477 17.928 72.9677 18.056 71.8477 18.12C71.3037 18.168 70.6637 18.192 69.9277 18.192ZM77.4071 0.167999H81.8471V18H77.4071V0.167999ZM84.5789 0.167999H89.0189V3.624H84.5789V0.167999ZM84.5789 5.76H89.0189V18H84.5789V5.76ZM99.6468 18.168C99.0708 18.168 98.5988 18.12 98.2308 18.024C97.8628 17.944 97.5188 17.776 97.1988 17.52V14.472H97.4628C97.8148 14.472 98.0628 14.456 98.2068 14.424C98.3668 14.376 98.4868 14.28 98.5668 14.136C98.6468 13.96 98.6948 13.704 98.7108 13.368C98.7268 13.128 98.7348 12.632 98.7348 11.88C98.7348 11.128 98.7268 10.632 98.7108 10.392C98.6948 10.04 98.6468 9.784 98.5668 9.624C98.5028 9.464 98.3828 9.368 98.2068 9.336C97.9828 9.304 97.7348 9.288 97.4628 9.288H97.1988V6.24C97.5188 6 97.8708 5.832 98.2548 5.736C98.6548 5.64 99.1188 5.592 99.6468 5.592C100.287 5.592 100.831 5.696 101.279 5.904C101.743 6.112 102.119 6.448 102.407 6.912C102.967 7.84 103.247 9.48 103.247 11.832C103.247 14.168 102.967 15.816 102.407 16.776C101.847 17.704 100.927 18.168 99.6468 18.168ZM91.7508 5.76H96.1908V22.776H91.7508V5.76ZM110.69 10.68H112.37C112.37 9.784 112.282 9.208 112.106 8.952C112.01 8.808 111.882 8.72 111.722 8.688C111.562 8.64 111.33 8.616 111.026 8.616H110.69V5.568H111.026C112.402 5.568 113.458 5.68 114.194 5.904C114.946 6.128 115.498 6.496 115.85 7.008C116.17 7.456 116.362 8.032 116.426 8.736C116.506 9.44 116.546 10.496 116.546 11.904V12.864H110.69V10.68ZM111.506 18.192C110.034 18.192 108.874 18.072 108.026 17.832C107.194 17.576 106.57 17.176 106.154 16.632C105.786 16.152 105.546 15.56 105.434 14.856C105.322 14.136 105.266 13.152 105.266 11.904C105.266 10.752 105.306 9.84 105.386 9.168C105.466 8.48 105.634 7.896 105.89 7.416C106.178 6.888 106.618 6.48 107.21 6.192C107.818 5.888 108.642 5.696 109.682 5.616V12.864C109.682 13.408 109.706 13.8 109.754 14.04C109.802 14.264 109.914 14.432 110.09 14.544C110.282 14.672 110.578 14.744 110.978 14.76C111.49 14.792 112.034 14.808 112.61 14.808C113.634 14.808 114.378 14.784 114.842 14.736L116.066 14.64V17.736C115.426 17.928 114.546 18.056 113.426 18.12C112.882 18.168 112.242 18.192 111.506 18.192ZM119.153 5.76H124.001V9.672H119.153V5.76ZM119.153 20.016C119.537 20.016 119.841 19.984 120.065 19.92C120.305 19.872 120.481 19.784 120.593 19.656C120.705 19.528 120.777 19.368 120.809 19.176C120.857 18.984 120.881 18.712 120.881 18.36V18H119.153V14.088H124.001V17.04C124.001 18.048 123.945 18.832 123.833 19.392C123.737 19.968 123.529 20.424 123.209 20.76C122.873 21.112 122.385 21.368 121.745 21.528C121.121 21.688 120.257 21.768 119.153 21.768V20.016Z" fill="white"/>
</g>
<defs>
<clipPath id="clip0_31_6">
<rect width="124" height="23" fill="white"/>
</clipPath>
</defs>
</svg>
